<?xml version="1.0" encoding="UTF-8"?>
<svg width="609px" height="462px" viewBox="0 0 609 462" version="1.1" xmlns="http://www.w3.org/2000/svg" xmlns:xlink="http://www.w3.org/1999/xlink">
    <!-- Generator: Sketch 43.2 (39069) - http://www.bohemiancoding.com/sketch -->
    <title>logo</title>
    <desc>Created with Sketch.</desc>
    <defs></defs>
    <g id="Mockups" stroke="none" stroke-width="1" fill="none" fill-rule="evenodd">
        <g id="Desktop" transform="translate(-724.000000, -51.000000)">
            <g id="basic-layout" transform="translate(315.000000, 51.000000)">
                <g id="logo" transform="translate(409.000000, 0.000000)">
                    <path d="M314.203962,77.6086208 L314.218093,92.4686923 C330.766656,69.3370521 342.853108,58.3174645 358.802099,49.953529 C374.751089,41.5895935 382.535816,38.7851294 406.702533,38.7851294 C430.86925,38.7851294 446.763895,45.8327198 464.605716,57.0761877 C482.447536,68.3196556 495.002777,84.8240879 505.161052,105.149056 C515.319326,125.474024 518.777143,143.267865 518.777143,162.410287 C518.777143,197.642057 506.766245,228.842217 483.460227,252.288261 C461.080677,274.802268 437.882087,287.183548 408.197709,287.183548 C386.528864,287.183548 366.961945,281.068571 351.449047,272.0065 C335.936149,262.944429 324.661994,250.575316 314.131493,233.545026 L314.131493,416.93693 C314.131493,425.356399 320.666242,431.288209 324.686979,434.732537 C329.856498,439.324975 337.036278,441.621159 346.226533,441.621159 L366.042924,441.621159 L366.042924,462 L91.199092,461.969973 C91.199092,461.969973 91.199092,253.033645 91.199092,253.033645 C108.391854,269.745619 124.565436,276.978465 138.139856,278.355514 C168.22719,281.407703 198.427634,269.745619 219.239924,255.068438 C240.052215,240.391257 259.054741,214.878361 259.054741,208.946463 L259.054741,187.662261 C248.887018,221.201264 216.326121,245.402832 205.189507,252.428462 C194.016333,259.477156 173.819901,269.525713 156.713359,269.525713 C132.323834,269.525713 118.302322,263.600078 105.599444,253.10518 C92.8965663,242.610283 85.8665611,220.109792 85.8665611,203.690355 C85.8665611,178.976564 101.454571,154.685315 130.115875,142.117775 C161.23777,129.47649 234.3291,98.638425 234.3291,98.638425 L234.3291,62.5835529 C234.3291,49.7188394 234.145738,35.178759 225.844504,25.0538091 C217.54327,14.9288592 203.065155,14.9602112 199.586572,14.9602112 C176.144909,14.9288592 157.594824,22.0846363 153.212684,35.7492783 C148.830545,49.4139202 155.377244,56.0923512 156.045302,65.7103692 C156.713359,75.3283871 154.494331,79.5483065 149.582551,84.3725741 C144.670772,89.1968416 139.139626,91.6089393 131.179156,91.6089393 C122.710571,91.6089393 115.639409,88.7313491 109.965456,82.9760826 C104.291504,77.220816 101.454571,72.0501095 101.454571,60.8861257 C101.454571,54.9804569 106.6952,35.7492783 125.697726,20.8411517 C144.700252,5.93302506 160.422581,0.212819142 205.224412,0.212819142 C205.189507,0.212819142 509.594002,0.267133278 509.594002,0.267133278 C509.594002,0.267133278 509.480892,6.37151236 510.498885,93.1893482 C483.460227,35.7492783 381.084381,-11.5437628 314.365666,77.3631802 C314.312343,77.4418104 314.258441,77.5236325 314.203967,77.6086132 Z" id="Combined-Shape" fill="#000000"></path>
                    <g id="d-&amp;-d" transform="translate(103.000000, 384.000000)">
                        <g id="'developer'" transform="translate(0.647761, 40.630273)">
                            <path d="M8.22537313,0.431849023 L13.961194,0.165400124 L13.961194,20.2587818 C13.961194,21.0424589 14.1100731,21.6014736 14.4078358,21.9358425 C14.7055985,22.2702114 15.1522358,22.4373934 15.7477612,22.4373934 L16.7664179,22.4373934 L16.7664179,23.6129032 L11.7514925,23.6129032 L11.3753731,20.6192715 C10.7798478,21.6850724 10.0824667,22.4870233 9.28320896,23.0251483 C8.48395123,23.5632733 7.58806466,23.8323317 6.59552239,23.8323317 C4.92387224,23.8323317 3.50037901,23.1322573 2.325,21.7320875 C1.14962099,20.3319176 0.561940299,18.4824673 0.561940299,16.183681 C0.561940299,13.6968122 1.31417158,11.7115265 2.81865672,10.2277644 C3.99925963,9.06792224 5.35745501,8.48800985 6.89328358,8.48800985 C7.83358679,8.48800985 8.67723507,8.72310947 9.42425373,9.19331576 C10.1712724,9.66352205 10.821639,10.3740453 11.3753731,11.3249069 L11.3753731,3.03364415 C11.3753731,2.59478495 11.2055987,2.24735996 10.8660448,1.99135875 C10.5264908,1.73535755 9.99627226,1.60735887 9.27537313,1.60735887 L8.22537313,1.60735887 L8.22537313,0.431849023 Z" id="Path" fill="#FFFFFF"></path>
                            <path d="M7.31641791,9.78890741 C6.18805406,9.78890741 5.2921675,10.2538822 4.62873134,11.1838458 C3.96529519,12.1138093 3.63358209,13.6811401 3.63358209,15.8858852 C3.63358209,18.2787127 3.97313093,19.9635933 4.65223881,20.9405775 C5.33134668,21.9175617 6.20372601,22.4060464 7.26940299,22.4060464 C8.40821465,22.4060464 9.38245864,21.8600929 10.1921642,20.7681694 C11.0018697,19.6762459 11.4067164,18.0801807 11.4067164,15.9799259 C11.4067164,13.9946105 10.9731387,12.4325041 10.1059701,11.29356 C9.35372758,10.2904533 8.42388613,9.78890741 7.31641791,9.78890741 Z" id="Path" fill="#000000"></path>
                            <path d="M32.6820896,16.3717626 L22.1664179,16.3717626 C22.218657,18.6078547 22.6365632,20.1856344 23.4201493,21.1051489 C24.3186612,22.1396027 25.4626796,22.6568219 26.8522388,22.6568219 C28.9000102,22.6568219 30.5455162,21.4917727 31.788806,19.1616393 L32.8074627,19.6004963 C31.2820819,22.5680204 29.0776264,24.0517602 26.1940299,24.0517602 C24.2298409,24.0517602 22.5764993,23.3412369 21.2339552,21.920169 C19.8914112,20.4991011 19.2201493,18.6809974 19.2201493,16.4658033 C19.2201493,14.0834248 19.8809635,12.1582202 21.2026119,10.6901316 C22.5242603,9.2220431 24.1514829,8.48800985 26.0843284,8.48800985 C27.505231,8.48800985 28.7328306,8.85372037 29.7671642,9.58515237 C30.8014977,10.3165844 31.5798481,11.366696 32.1022388,12.7355188 C32.4679123,13.6968294 32.6611939,14.9088985 32.6820896,16.3717626 Z" id="Path" fill="#FFFFFF"></path>
                            <path d="M22.1664179,15.2589466 L28.5291045,15.2589466 C28.9052258,15.2589466 29.1977601,15.1309479 29.4067164,14.8749467 C29.6156727,14.6189455 29.7201493,14.1827051 29.7201493,13.5662124 C29.7201493,12.4168192 29.362317,11.4398497 28.6466418,10.6352745 C27.9309666,9.8306993 27.0873183,9.42841773 26.1156716,9.42841773 C25.029099,9.42841773 24.1070933,9.91429027 23.3496269,10.8860499 C22.5921604,11.8578096 22.1977614,13.3154272 22.1664179,15.2589466 Z" id="Path" fill="#000000"></path>
                            <path d="M34.8850746,8.92686686 L42.1097015,8.92686686 L42.1097015,9.99266245 C41.1485027,10.0135605 40.5347028,10.0997637 40.2682836,10.2512746 C40.0018643,10.4027855 39.8686567,10.6195996 39.8686567,10.9017234 C39.8686567,11.131602 39.920895,11.3614772 40.0253731,11.5913558 L43.9119403,20.2587818 L47.469403,11.8578047 C47.5216421,11.7115183 47.5477612,11.5652341 47.5477612,11.4189477 C47.5477612,10.6561686 46.7955299,10.180745 45.2910448,9.99266245 L45.2910448,8.92686686 L51.3716418,8.92686686 L51.3716418,9.99266245 C50.7552208,10.0553566 50.2641809,10.2225386 49.8985075,10.4942133 C49.532834,10.7658881 49.2507473,11.1315986 49.0522388,11.5913558 L43.661194,24.0517602 L42.8149254,24.0517602 L37.0477612,11.2465396 C36.8388049,10.7867824 36.5854493,10.4654796 36.2876866,10.2826215 C35.9899239,10.0997635 35.5223912,10.0031115 34.8850746,9.99266245 L34.8850746,8.92686686 Z" id="Path" fill="#FFFFFF"></path>
                            <path d="M67.1149254,16.3717626 L56.5992537,16.3717626 C56.6514928,18.6078547 57.0693991,20.1856344 57.8529851,21.1051489 C58.751497,22.1396027 59.8955154,22.6568219 61.2850746,22.6568219 C63.3328461,22.6568219 64.978352,21.4917727 66.2216418,19.1616393 L67.2402985,19.6004963 C65.7149177,22.5680204 63.5104622,24.0517602 60.6268657,24.0517602 C58.6626767,24.0517602 57.0093351,23.3412369 55.666791,21.920169 C54.324247,20.4991011 53.6529851,18.6809974 53.6529851,16.4658033 C53.6529851,14.0834248 54.3137994,12.1582202 55.6354478,10.6901316 C56.9570962,9.2220431 58.5843187,8.48800985 60.5171642,8.48800985 C61.9380668,8.48800985 63.1656665,8.85372037 64.2,9.58515237 C65.2343335,10.3165844 66.012684,11.366696 66.5350746,12.7355188 C66.9007481,13.6968294 67.0940297,14.9088985 67.1149254,16.3717626 Z" id="Path" fill="#FFFFFF"></path>
                            <path d="M56.5992537,15.2589466 L62.9619403,15.2589466 C63.3380616,15.2589466 63.630596,15.1309479 63.8395522,14.8749467 C64.0485085,14.6189455 64.1529851,14.1827051 64.1529851,13.5662124 C64.1529851,12.4168192 63.7951528,11.4398497 63.0794776,10.6352745 C62.3638024,9.8306993 61.5201541,9.42841773 60.5485075,9.42841773 C59.4619349,9.42841773 58.5399292,9.91429027 57.7824627,10.8860499 C57.0249962,11.8578096 56.6305972,13.3154272 56.5992537,15.2589466 Z" id="Path" fill="#000000"></path>
                            <path d="M75.4925373,0.165400124 L75.4925373,21.4499651 C75.4925373,21.7425379 75.5813424,21.9671887 75.7589552,22.1239241 C76.0201506,22.3329047 76.3388041,22.4373934 76.7149254,22.4373934 L78.2664179,22.4373934 L78.2664179,23.6129032 L69.9604478,23.6129032 L69.9604478,22.4373934 L71.4335821,22.4373934 C71.9141815,22.4373934 72.2720137,22.3224558 72.5070896,22.0925772 C72.7421654,21.8626985 72.8597015,21.5387835 72.8597015,21.1208223 L72.8597015,3.25307266 C72.8597015,2.73062122 72.7186581,2.3492374 72.4365672,2.10890974 C72.0499981,1.77454082 71.5746297,1.60735887 71.0104478,1.60735887 L69.6940299,1.60735887 L69.6940299,0.431849023 L75.4925373,0.165400124 Z" id="Path" fill="#FFFFFF"></path>
                            <path d="M87.5686567,8.48800985 C89.5432935,8.48800985 91.201859,9.20114536 92.544403,10.6274378 C93.886947,12.0537302 94.558209,13.9319149 94.558209,16.2620483 C94.558209,17.8711987 94.2578388,19.2426132 93.6570896,20.3763328 C93.0563403,21.5100524 92.1996324,22.4060432 91.0869403,23.064332 C89.9742482,23.7226208 88.7753796,24.0517602 87.4902985,24.0517602 C85.5887965,24.0517602 83.9772454,23.3307881 82.655597,21.8888221 C81.3339486,20.4468562 80.6731343,18.5765081 80.6731343,16.2777218 C80.6731343,13.9684864 81.3365605,12.0929139 82.6634328,10.650948 C83.9903051,9.20898201 85.6253634,8.48800985 87.5686567,8.48800985 Z" id="Path" fill="#FFFFFF"></path>
                            <path d="M87.5686567,9.60082584 C86.3985016,9.60082584 85.4373172,10.1311061 84.6850746,11.1916825 C83.9328321,12.2522589 83.5567164,13.9266906 83.5567164,16.2150279 C83.5567164,18.5451613 83.9302201,20.2483274 84.6772388,21.3245774 C85.4242575,22.4008273 86.3880538,22.9389442 87.5686567,22.9389442 C88.7910509,22.9389442 89.7809664,22.4008273 90.5384328,21.3245774 C91.2958993,20.2483274 91.6746269,18.4876925 91.6746269,16.0426198 C91.6746269,13.7751806 91.3011231,12.1347077 90.5541045,11.1211519 C89.8070858,10.1075961 88.8119465,9.60082584 87.5686567,9.60082584 Z" id="Path" fill="#000000"></path>
                            <path d="M101.901493,8.66041796 C102.131344,9.75756597 102.267164,10.812902 102.308955,11.8264578 C103.029854,10.6770647 103.787309,9.86205265 104.581343,9.38139733 C105.375377,8.90074201 106.242533,8.66041796 107.182836,8.66041796 C108.185826,8.66041796 109.144398,8.96865968 110.058582,9.58515237 C110.972766,10.2016451 111.714549,11.1054725 112.283955,12.2966618 C112.853361,13.487851 113.13806,14.8305311 113.13806,16.3247422 C113.13806,18.7175697 112.438067,20.6662844 111.03806,22.1709445 C109.878352,23.4248279 108.488814,24.0517602 106.869403,24.0517602 C105.949995,24.0517602 105.119407,23.8166606 104.377612,23.3464543 C103.635817,22.876248 102.977615,22.1761736 102.402985,21.2462101 L102.402985,27.1864532 C102.402985,27.6462104 102.512685,27.9701255 102.73209,28.158208 C103.014181,28.4089847 103.405968,28.5343711 103.907463,28.5343711 L104.988806,28.5343711 L104.988806,29.6471871 L97.1686567,29.6471871 L97.1686567,28.5343711 L98.25,28.5343711 C98.751495,28.5343711 99.1276107,28.4351068 99.3783582,28.2365753 C99.6291057,28.0380437 99.7544776,27.776822 99.7544776,27.4529021 L99.7544776,11.9988659 C99.7544776,11.2778829 99.5820913,10.7685004 99.2373134,10.4707031 C98.8925356,10.1729058 98.2029902,10.0083361 97.1686567,9.97698899 L97.1686567,8.92686686 L101.901493,8.66041796 Z" id="Path" fill="#FFFFFF"></path>
                            <path d="M106.46194,10.0867032 C105.323129,10.0867032 104.359332,10.635269 103.570522,11.732417 C102.781712,12.829565 102.387313,14.4177936 102.387313,16.4971503 C102.387313,18.597405 102.768653,20.1490625 103.531343,21.1521693 C104.294034,22.155276 105.265666,22.6568219 106.446269,22.6568219 C107.553737,22.6568219 108.405221,22.2284181 109.000746,21.3715978 C109.763437,20.2431027 110.144776,18.5921809 110.144776,16.418783 C110.144776,14.1408947 109.800003,12.5160951 109.110448,11.5443355 C108.420892,10.5725758 107.538065,10.0867032 106.46194,10.0867032 Z" id="Path" fill="#000000"></path>
                            <path d="M130.041045,16.3717626 L119.525373,16.3717626 C119.577612,18.6078547 119.995518,20.1856344 120.779104,21.1051489 C121.677616,22.1396027 122.821635,22.6568219 124.211194,22.6568219 C126.258965,22.6568219 127.904471,21.4917727 129.147761,19.1616393 L130.166418,19.6004963 C128.641037,22.5680204 126.436582,24.0517602 123.552985,24.0517602 C121.588796,24.0517602 119.935454,23.3412369 118.59291,21.920169 C117.250366,20.4991011 116.579104,18.6809974 116.579104,16.4658033 C116.579104,14.0834248 117.239919,12.1582202 118.561567,10.6901316 C119.883216,9.2220431 121.510438,8.48800985 123.443284,8.48800985 C124.864186,8.48800985 126.091786,8.85372037 127.126119,9.58515237 C128.160453,10.3165844 128.938803,11.366696 129.461194,12.7355188 C129.826868,13.6968294 130.020149,14.9088985 130.041045,16.3717626 Z" id="Path" fill="#FFFFFF"></path>
                            <path d="M119.525373,15.2589466 L125.88806,15.2589466 C126.264181,15.2589466 126.556715,15.1309479 126.765672,14.8749467 C126.974628,14.6189455 127.079104,14.1827051 127.079104,13.5662124 C127.079104,12.4168192 126.721272,11.4398497 126.005597,10.6352745 C125.289922,9.8306993 124.446274,9.42841773 123.474627,9.42841773 C122.388054,9.42841773 121.466049,9.91429027 120.708582,10.8860499 C119.951116,11.8578096 119.556717,13.3154272 119.525373,15.2589466 Z" id="Path" fill="#000000"></path>
                            <path d="M132.651493,8.92686686 L137.932836,8.66041796 L137.932836,14.6006611 C138.497018,12.6466927 139.176115,11.1681773 139.970149,10.1650706 C140.764183,9.16196381 141.746263,8.66041796 142.916418,8.66041796 C143.710452,8.66041796 144.345147,8.90335423 144.820522,9.38923406 C145.295898,9.8751139 145.533582,10.5255562 145.533582,11.3405804 C145.533582,11.9988692 145.374255,12.5108639 145.055597,12.8765799 C144.736939,13.242296 144.337316,13.4251512 143.856716,13.4251512 C143.386565,13.4251512 143.007837,13.2684181 142.720522,12.9549473 C142.433208,12.6414764 142.289552,12.2182971 142.289552,11.6853966 C142.289552,11.3405787 142.373133,11.0166637 142.540299,10.7136418 C142.697016,10.4419671 142.775373,10.2800096 142.775373,10.2277644 C142.775373,10.071029 142.67612,9.99266245 142.477612,9.99266245 C142.049252,9.99266245 141.563436,10.2434354 141.020149,10.7449888 C140.267907,11.4450737 139.688062,12.4063699 139.280597,13.6289063 C138.653728,15.5306295 138.340299,17.0509403 138.340299,18.1898845 L138.340299,21.3402509 C138.340299,21.6955178 138.46567,21.9671885 138.716418,22.155271 C138.967165,22.3433535 139.395519,22.4373934 140.001493,22.4373934 L141.866418,22.4373934 L141.866418,23.6129032 L132.745522,23.6129032 L132.745522,22.4373934 L134.202985,22.4373934 C134.694032,22.4373934 135.064924,22.3407413 135.315672,22.1474343 C135.566419,21.9541273 135.691791,21.7216399 135.691791,21.4499651 L135.691791,12.0929067 C135.691791,11.3823728 135.5403,10.8625414 135.237313,10.533397 C134.934327,10.2042526 134.500749,10.0396828 133.936567,10.0396828 L132.651493,10.0396828 L132.651493,8.92686686 Z" id="Path" fill="#FFFFFF"></path>
                        </g>
                        <g id="'designer/'" transform="translate(0.307463, 0.000000)">
                            <path d="M8.56567164,0.523660437 L14.3014925,0.257211538 L14.3014925,20.3505932 C14.3014925,21.1342704 14.4503716,21.693285 14.7481343,22.0276539 C15.045897,22.3620228 15.4925343,22.5292048 16.0880597,22.5292048 L17.1067164,22.5292048 L17.1067164,23.7047146 L12.091791,23.7047146 L11.7156716,20.7110829 C11.1201463,21.7768838 10.4227652,22.5788347 9.62350746,23.1169597 C8.82424974,23.6550847 7.92836317,23.9241431 6.9358209,23.9241431 C5.26417075,23.9241431 3.84067752,23.2240687 2.66529851,21.8238989 C1.4899195,20.423729 0.902238806,18.5742787 0.902238806,16.2754924 C0.902238806,13.7886236 1.65447009,11.8033379 3.15895522,10.3195758 C4.33955814,9.15973365 5.69775351,8.57982126 7.23358209,8.57982126 C8.1738853,8.57982126 9.01753358,8.81492088 9.76455224,9.28512717 C10.5115709,9.75533346 11.1619375,10.4658568 11.7156716,11.4167184 L11.7156716,3.12545557 C11.7156716,2.68659636 11.5458972,2.33917137 11.2063433,2.08317017 C10.8667893,1.82716897 10.3365708,1.69917029 9.61567164,1.69917029 L8.56567164,1.69917029 L8.56567164,0.523660437 Z" id="Path" fill="#FFFFFF"></path>
                            <path d="M7.65671642,9.88071883 C6.52835257,9.88071883 5.632466,10.3456936 4.96902985,11.2756572 C4.3055937,12.2056207 3.9738806,13.7729515 3.9738806,15.9776966 C3.9738806,18.3705241 4.31342944,20.0554047 4.99253731,21.0323889 C5.67164519,22.0093731 6.54402452,22.4978579 7.60970149,22.4978579 C8.74851316,22.4978579 9.72275715,21.9519043 10.5324627,20.8599808 C11.3421682,19.7680573 11.7470149,18.1719921 11.7470149,16.0717374 C11.7470149,14.0864219 11.3134372,12.5243156 10.4462687,11.3853714 C9.69402609,10.3822647 8.76418464,9.88071883 7.65671642,9.88071883 Z" id="Path" fill="#000000"></path>
                            <path d="M33.0223881,16.463574 L22.5067164,16.463574 C22.5589555,18.6996661 22.9768618,20.2774458 23.7604478,21.1969603 C24.6589597,22.2314141 25.8029781,22.7486333 27.1925373,22.7486333 C29.2403087,22.7486333 30.8858147,21.5835841 32.1291045,19.2534507 L33.1477612,19.6923077 C31.6223804,22.6598318 29.4179249,24.1435717 26.5343284,24.1435717 C24.5701394,24.1435717 22.9167978,23.4330484 21.5742537,22.0119805 C20.2317097,20.5909126 19.5604478,18.7728088 19.5604478,16.5576148 C19.5604478,14.1752362 20.221262,12.2500316 21.5429104,10.781943 C22.8645588,9.31385452 24.4917814,8.57982126 26.4246269,8.57982126 C27.8455295,8.57982126 29.0731292,8.94553178 30.1074627,9.67696379 C31.1417962,10.4083958 31.9201466,11.4585074 32.4425373,12.8273302 C32.8082108,13.7886408 33.0014924,15.00071 33.0223881,16.463574 Z" id="Path" fill="#FFFFFF"></path>
                            <path d="M22.5067164,15.350758 L28.869403,15.350758 C29.2455243,15.350758 29.5380587,15.2227593 29.7470149,14.9667581 C29.9559712,14.7107569 30.0604478,14.2745165 30.0604478,13.6580238 C30.0604478,12.5086307 29.7026155,11.5316611 28.9869403,10.7270859 C28.2712651,9.92251071 27.4276168,9.52022914 26.4559701,9.52022914 C25.3693976,9.52022914 24.4473918,10.0061017 23.6899254,10.9778614 C22.9324589,11.949621 22.5380599,13.4072387 22.5067164,15.350758 Z" id="Path" fill="#000000"></path>
                            <path d="M37.6231343,18.1719816 C38.2708988,19.9796636 39.0152943,21.230916 39.8563433,21.9257764 C40.6973923,22.6206368 41.7343222,22.9680618 42.9671642,22.9680618 C44.1059758,22.9680618 44.9809671,22.7199011 45.5921642,22.2235722 C46.2033613,21.7272434 46.5089552,21.0976988 46.5089552,20.3349197 C46.5089552,19.8960605 46.3966429,19.5120645 46.1720149,19.1829201 C45.9473869,18.8537757 45.6365691,18.6082272 45.2395522,18.4462673 C44.8425353,18.2843073 43.8134411,18.0465955 42.1522388,17.7331246 C40.5641712,17.4196538 39.4567196,17.0905143 38.8298507,16.7456963 C38.2029819,16.4008784 37.714554,15.9254547 37.3645522,15.3194111 C37.0145505,14.7133674 36.8395522,14.0550885 36.8395522,13.3445545 C36.8395522,12.2683046 37.1999964,11.291335 37.9208955,10.4136166 C38.8507509,9.29557056 40.1514842,8.73655591 41.8231343,8.73655591 C43.0977676,8.73655591 44.2783528,9.13883748 45.3649254,9.94341269 L46.3992537,8.84627016 L47.041791,8.84627016 L47.4492537,14.0812074 L46.3992537,14.0812074 C45.9395499,12.5974453 45.3179144,11.5290481 44.5343284,10.8759838 C43.7507424,10.2229195 42.7843341,9.89639229 41.6350746,9.89639229 C40.6425324,9.89639229 39.8641819,10.1393286 39.3,10.6252084 C38.7358181,11.1110882 38.4537313,11.7040617 38.4537313,12.4041466 C38.4537313,13.0206393 38.7149228,13.5326341 39.2373134,13.9401462 C39.7492563,14.3581073 40.7522313,14.6872468 42.2462687,14.9275744 C43.9806057,15.2201472 45.1089526,15.4656957 45.6313433,15.6642273 C46.488064,15.9776981 47.1514902,16.4609585 47.6216418,17.1140228 C48.0917934,17.7670871 48.3268657,18.5638135 48.3268657,19.5042261 C48.3268657,20.7999057 47.8175424,21.8970372 46.7988806,22.7956537 C45.7802188,23.6942702 44.4873213,24.1435717 42.9201493,24.1435717 C41.4679032,24.1435717 40.1201555,23.6629235 38.8768657,22.7016129 L37.7328358,24.0181839 L36.9022388,24.0181839 L36.588806,18.1719816 L37.6231343,18.1719816 Z" id="Path" fill="#FFFFFF"></path>
                            <path d="M55.0746269,0.257211538 C55.5447785,0.257211538 55.9574609,0.434842361 56.3126866,0.790109336 C56.6679122,1.14537631 56.8455224,1.56333119 56.8455224,2.04398651 C56.8455224,2.5141928 56.6731361,2.9216988 56.3283582,3.26651675 C55.9835804,3.6113347 55.5708979,3.78374108 55.0902985,3.78374108 C54.6096991,3.78374108 54.1944047,3.60872248 53.844403,3.25868002 C53.4944012,2.90863756 53.319403,2.49851933 53.319403,2.02831304 C53.319403,1.55810675 53.4970131,1.14537631 53.8522388,0.790109336 C54.2074645,0.434842361 54.6149231,0.257211538 55.0746269,0.257211538 Z" id="Path" fill="#FFFFFF"></path>
                            <path d="M51.0156716,9.01867827 L56.8455224,8.84627016 L56.8455224,21.4790827 C56.8455224,21.8239006 56.9291036,22.0694491 57.0962687,22.2157355 C57.3365684,22.4247161 57.6395504,22.5292048 58.0052239,22.5292048 L59.6664179,22.5292048 L59.6664179,23.7047146 L51.3291045,23.7047146 L51.3291045,22.5292048 L52.880597,22.5292048 C53.3403008,22.5292048 53.6772377,22.4168794 53.8914179,22.1922253 C54.1055981,21.9675712 54.2126866,21.6410439 54.2126866,21.2126338 L54.2126866,11.9652896 C54.2126866,11.380144 54.0455241,10.9386792 53.711194,10.6408819 C53.376864,10.3430845 52.8806003,10.1941881 52.2223881,10.1941881 L51.0156716,10.1941881 L51.0156716,9.01867827 Z" id="Path" fill="#FFFFFF"></path>
                            <path d="M73.2313433,9.8493719 C74.2761246,8.79402 75.237309,8.26635197 76.1149254,8.26635197 C76.637316,8.26635197 77.0708938,8.43353392 77.4156716,8.76790284 C77.7604495,9.10227176 77.9328358,9.50977776 77.9328358,9.99043308 C77.9328358,10.3770471 77.8152997,10.69835 77.5802239,10.9543512 C77.3451481,11.2103524 77.0708971,11.338351 76.7574627,11.338351 C76.1619373,11.338351 75.7597025,10.9726405 75.5507463,10.2412085 C75.4671638,9.92773765 75.3261204,9.77100458 75.1276119,9.77100458 C74.7723863,9.77100458 74.385823,10.0061042 73.9679104,10.4763105 C74.4171664,11.0928032 74.7253723,11.6283079 74.8925373,12.0828406 C75.0597023,12.5373734 75.1432836,13.0258581 75.1432836,13.5483096 C75.1432836,14.457375 74.9238828,15.259326 74.4850746,15.9541864 C74.0462665,16.6490468 73.3175424,17.262918 72.2988806,17.7958185 C71.2802188,18.3287189 70.3059748,18.5951652 69.3761194,18.5951652 L67.6679104,18.5951652 C66.4559641,18.5951652 65.6514945,18.7205516 65.2544776,18.9713283 C64.8574607,19.232554 64.6589552,19.6139379 64.6589552,20.1154912 C64.6589552,20.5230034 64.8208939,20.8364695 65.1447761,21.0558991 C65.4686583,21.2753287 66.0798463,21.3850419 66.9783582,21.3850419 L70.8492537,21.3066746 C72.8029948,21.3066746 74.2108166,21.6332018 75.0727612,22.2862661 C75.9347058,22.9393304 76.3656716,23.8353212 76.3656716,24.9742653 C76.3656716,26.2281487 75.8746318,27.2834848 74.8925373,28.1403051 C73.5238738,29.3523925 71.4813569,29.958427 68.7649254,29.958427 C66.5186455,29.958427 64.8522442,29.5456966 63.7656716,28.7202233 C62.9089509,28.0723835 62.480597,27.3461869 62.480597,26.5416117 C62.480597,25.925119 62.754848,25.36088 63.3033582,24.8488776 C63.8518684,24.3368752 64.7738741,23.9554913 66.069403,23.7047146 C65.0350695,23.453938 64.256719,23.0856152 63.7343284,22.5997354 C63.2119377,22.1138555 62.9507463,21.5104332 62.9507463,20.7894502 C62.9507463,20.1207124 63.1623113,19.5381878 63.5854478,19.0418589 C64.0085842,18.54553 64.7425321,18.1197385 65.7873134,17.7644715 C64.8992493,17.2733672 64.2305993,16.6803937 63.7813433,15.9855333 C63.3320873,15.2906729 63.1074627,14.4939464 63.1074627,13.5953299 C63.1074627,12.174262 63.6664123,10.9830906 64.7843284,10.02178 C65.9022444,9.06046937 67.3544687,8.57982126 69.1410448,8.57982126 C69.8723917,8.57982126 70.5776085,8.68430998 71.2567164,8.89329056 C71.9358243,9.10227113 72.5940267,9.42096172 73.2313433,9.8493719 Z" id="Path" fill="#FFFFFF"></path>
                            <path d="M69.1097015,9.582923 C68.1798461,9.582923 67.4119433,9.92512356 66.8059701,10.6095349 C66.199997,11.2939463 65.8970149,12.2526303 65.8970149,13.4856157 C65.8970149,14.8021933 66.199997,15.8235705 66.8059701,16.549778 C67.4119433,17.2759855 68.1850699,17.6390838 69.1253731,17.6390838 C70.0656763,17.6390838 70.836191,17.2864344 71.4369403,16.581125 C72.0376896,15.8758155 72.3380597,14.8648872 72.3380597,13.5483096 C72.3380597,12.3257732 72.0324657,11.3592525 71.4212687,10.6487186 C70.8100716,9.93818465 70.0395569,9.582923 69.1097015,9.582923 Z" id="Path" fill="#000000"></path>
                            <path d="M70.0343284,23.7203881 C68.1119307,23.7203881 66.7406757,23.9868343 65.9205224,24.5197348 C65.100369,25.0526353 64.6902985,25.6952409 64.6902985,26.447571 C64.6902985,27.1581049 64.9985044,27.7171196 65.6149254,28.1246317 C66.4298548,28.6679812 67.5895447,28.9396518 69.0940299,28.9396518 C70.8910538,28.9396518 72.2440253,28.641859 73.1529851,28.0462643 C74.0619448,27.4506697 74.5164179,26.7871663 74.5164179,26.0557343 C74.5164179,25.6273242 74.3753745,25.2276548 74.0932836,24.8567143 C73.8111926,24.4857738 73.3619434,24.2036542 72.7455224,24.0103472 C72.1291014,23.8170402 71.2253791,23.7203881 70.0343284,23.7203881 Z" id="Path" fill="#000000"></path>
                            <path d="M79.7910448,9.01867827 L84.6649254,8.72088244 C84.8634338,9.64039697 85.009701,10.7166308 85.1037313,11.9496162 C85.7619436,10.8838152 86.5376821,10.0844765 87.4309701,9.55157607 C88.3242582,9.01867561 89.335069,8.75222937 90.4634328,8.75222937 C91.4350795,8.75222937 92.2499967,8.94292129 92.908209,9.32431083 C93.5664212,9.70570038 94.0940279,10.3091227 94.4910448,11.134596 C94.8880617,11.9600693 95.0865672,12.8847944 95.0865672,13.9087992 L95.0865672,21.0558991 C95.0865672,21.5887996 95.2067152,21.9675712 95.4470149,22.1922253 C95.6873146,22.4168794 96.0895494,22.5292048 96.6537313,22.5292048 L97.6880597,22.5292048 L97.6880597,23.7047146 L89.9462687,23.7047146 L89.9462687,22.5292048 L90.6828358,22.5292048 C91.3723915,22.5292048 91.8529837,22.4194916 92.1246269,22.200062 C92.39627,21.9806324 92.5320896,21.651493 92.5320896,21.2126338 L92.5320896,14.9275744 C92.5320896,13.5587517 92.3231364,12.5452111 91.9052239,11.8869223 C91.3201463,10.9465097 90.4320955,10.4763105 89.2410448,10.4763105 C88.0604419,10.4763105 87.0757502,10.9517342 86.2869403,11.9025958 C85.4981304,12.8534574 85.1037313,14.0916487 85.1037313,15.6172069 L85.1037313,21.0558991 C85.1037313,21.5887996 85.2264913,21.9675712 85.4720149,22.1922253 C85.7175385,22.4168794 86.1223852,22.5292048 86.6865672,22.5292048 L87.7052239,22.5292048 L87.7052239,23.7047146 L79.9320896,23.7047146 L79.9320896,22.5292048 L80.9507463,22.5292048 C81.4626891,22.5292048 81.8518643,22.4247161 82.1182836,22.2157355 C82.3847028,22.0067549 82.5179104,21.7455331 82.5179104,21.4320623 L82.5179104,11.9496162 C82.5179104,11.3226744 82.348136,10.8472508 82.0085821,10.5233309 C81.6690282,10.199411 81.1806002,10.0374535 80.5432836,10.0374535 L79.7910448,10.0374535 L79.7910448,9.01867827 Z" id="Path" fill="#FFFFFF"></path>
                            <path d="M113.744776,16.463574 L103.229104,16.463574 C103.281344,18.6996661 103.69925,20.2774458 104.482836,21.1969603 C105.381348,22.2314141 106.525366,22.7486333 107.914925,22.7486333 C109.962697,22.7486333 111.608203,21.5835841 112.851493,19.2534507 L113.870149,19.6923077 C112.344768,22.6598318 110.140313,24.1435717 107.256716,24.1435717 C105.292527,24.1435717 103.639186,23.4330484 102.296642,22.0119805 C100.954098,20.5909126 100.282836,18.7728088 100.282836,16.5576148 C100.282836,14.1752362 100.94365,12.2500316 102.265299,10.781943 C103.586947,9.31385452 105.214169,8.57982126 107.147015,8.57982126 C108.567918,8.57982126 109.795517,8.94553178 110.829851,9.67696379 C111.864184,10.4083958 112.642535,11.4585074 113.164925,12.8273302 C113.530599,13.7886408 113.72388,15.00071 113.744776,16.463574 Z" id="Path" fill="#FFFFFF"></path>
                            <path d="M103.229104,15.350758 L109.591791,15.350758 C109.967912,15.350758 110.260447,15.2227593 110.469403,14.9667581 C110.678359,14.7107569 110.782836,14.2745165 110.782836,13.6580238 C110.782836,12.5086307 110.425004,11.5316611 109.709328,10.7270859 C108.993653,9.92251071 108.150005,9.52022914 107.178358,9.52022914 C106.091786,9.52022914 105.16978,10.0061017 104.412313,10.9778614 C103.654847,11.949621 103.260448,13.4072387 103.229104,15.350758 Z" id="Path" fill="#000000"></path>
                            <path d="M116.355224,9.01867827 L121.636567,8.75222937 L121.636567,14.6924725 C122.200749,12.7385041 122.879847,11.2599887 123.673881,10.256882 C124.467914,9.25377523 125.449994,8.75222937 126.620149,8.75222937 C127.414183,8.75222937 128.048878,8.99516565 128.524254,9.48104548 C128.999629,9.96692531 129.237313,10.6173676 129.237313,11.4323918 C129.237313,12.0906806 129.077987,12.6026754 128.759328,12.9683914 C128.44067,13.3341074 128.041047,13.5169626 127.560448,13.5169626 C127.090296,13.5169626 126.711569,13.3602295 126.424254,13.0467587 C126.136939,12.7332878 125.993284,12.3101085 125.993284,11.777208 C125.993284,11.4323901 126.076865,11.1084751 126.24403,10.8054532 C126.400747,10.5337785 126.479104,10.371821 126.479104,10.3195758 C126.479104,10.1628404 126.379852,10.0844739 126.181343,10.0844739 C125.752983,10.0844739 125.267167,10.3352468 124.723881,10.8368002 C123.971638,11.5368851 123.391793,12.4981813 122.984328,13.7207177 C122.35746,15.6224409 122.04403,17.1427517 122.04403,18.2816959 L122.04403,21.4320623 C122.04403,21.7873292 122.169402,22.0589999 122.420149,22.2470824 C122.670897,22.4351649 123.099251,22.5292048 123.705224,22.5292048 L125.570149,22.5292048 L125.570149,23.7047146 L116.449254,23.7047146 L116.449254,22.5292048 L117.906716,22.5292048 C118.397764,22.5292048 118.768655,22.4325527 119.019403,22.2392457 C119.270151,22.0459387 119.395522,21.8134513 119.395522,21.5417765 L119.395522,12.1847181 C119.395522,11.4741842 119.244031,10.9543528 118.941045,10.6252084 C118.638058,10.296064 118.20448,10.1314943 117.640299,10.1314943 L116.355224,10.1314943 L116.355224,9.01867827 Z" id="Path" fill="#FFFFFF"></path>
                            <polygon id="Path" fill="#FFFFFF" points="139.276119 0.523660437 132.380597 23.7047146 130.358955 23.7047146 137.270149 0.523660437"></polygon>
                        </g>
                    </g>
                    <g id="'Ahart-Powers'" transform="translate(0.000000, 143.000000)">
                        <path d="M137.556717,35.4914654 L138.47078,36.9133404 C137.235097,38.182878 135.864017,38.8176373 134.357499,38.8176373 C133.206451,38.8176373 132.237385,38.5044893 131.450272,37.8781841 C130.663159,37.2518789 129.973387,36.1516295 129.380936,34.5774029 C127.772855,36.2701197 126.359458,37.3999912 125.140702,37.9670513 C123.921946,38.5341114 122.457768,38.8176373 120.748124,38.8176373 C118.310611,38.8176373 116.457114,38.2929029 115.187577,37.2434185 C113.918039,36.1939341 113.28328,34.8482444 113.28328,33.2063091 C113.28328,30.7349426 114.734763,28.6825543 117.637772,27.0490826 C120.540781,25.4156109 124.404349,24.3280566 129.228592,23.7863873 L129.228592,20.1809185 C129.228592,18.8944537 128.712321,17.7942043 127.679764,16.8801373 C126.647207,15.9660702 125.335371,15.5090435 123.744217,15.5090435 C122.271554,15.5090435 121.002035,15.813728 119.935624,16.423106 C119.173901,16.8801395 118.793045,17.3287028 118.793045,17.7688091 C118.793045,18.0227166 118.996168,18.4204991 119.40242,18.9621685 C119.893308,19.6392552 120.138749,20.2401607 120.138749,20.7649029 C120.138749,21.5266254 119.893308,22.1486895 119.40242,22.6311138 C118.911533,23.1135381 118.26831,23.3547466 117.472733,23.3547466 C116.626375,23.3547466 115.919676,23.0669891 115.352616,22.4914654 C114.785556,21.9159417 114.50203,21.1796209 114.50203,20.282481 C114.50203,18.6066914 115.445705,17.0748057 117.333085,15.6867779 C119.220464,14.2987501 121.696025,13.6047466 124.759842,13.6047466 C127.586679,13.6047466 129.744861,14.2141155 131.234452,15.4328716 C132.724043,16.6685549 133.468827,18.1665868 133.468827,19.9270123 L133.468827,32.9270123 C133.468827,34.0780597 133.655023,34.9244054 134.02742,35.4660748 C134.399818,36.0246713 134.882235,36.3039654 135.474686,36.3039654 C136.134846,36.3039654 136.828849,36.0331348 137.556717,35.4914654 Z M129.228592,25.4621685 C124.929092,26.0546194 121.882247,27.0194535 120.087967,28.3566998 C118.750721,29.3723298 118.082108,30.8111175 118.082108,32.673106 C118.082108,33.9764979 118.42911,34.9963445 119.123124,35.7326763 C119.817137,36.4690081 120.722727,36.8371685 121.83992,36.8371685 C123.837326,36.8371685 125.568103,36.0796891 127.032303,34.5647076 C128.496503,33.049726 129.228592,31.1496799 129.228592,28.8645123 L129.228592,25.4621685 Z M167.999062,14.3156841 L176.555703,13.8840435 L176.555703,23.5070904 C177.46977,20.34171 178.570019,17.9465516 179.856484,16.3215435 C181.142949,14.6965354 182.734079,13.8840435 184.629921,13.8840435 C185.916386,13.8840435 186.944696,14.2775943 187.714882,15.0647076 C188.485068,15.8518209 188.870156,16.9055213 188.870156,18.2258404 C188.870156,19.292252 188.61202,20.1216707 188.095742,20.7141216 C187.579463,21.3065725 186.932009,21.6027935 186.153359,21.6027935 C185.391636,21.6027935 184.778036,21.3488898 184.312539,20.8410748 C183.847041,20.3332597 183.614296,19.6477197 183.614296,18.7844341 C183.614296,18.2258376 183.749712,17.7011032 184.020546,17.2102154 C184.274454,16.770109 184.401406,16.5077418 184.401406,16.423106 C184.401406,16.1691985 184.2406,16.0422466 183.918984,16.0422466 C183.22497,16.0422466 182.437869,16.4484926 181.557656,17.2609966 C180.3389,18.3951169 179.399456,19.952393 178.739296,21.9328716 C177.723666,25.0136162 177.215859,27.4764822 177.215859,29.3215435 L177.215859,34.4250591 C177.215859,35.0005828 177.418982,35.4406826 177.825234,35.7453716 C178.231486,36.0500607 178.925489,36.2024029 179.907265,36.2024029 L182.92875,36.2024029 L182.92875,38.1066998 L168.151406,38.1066998 L168.151406,36.2024029 L170.512734,36.2024029 C171.308311,36.2024029 171.909216,36.0458289 172.315468,35.7326763 C172.72172,35.4195237 172.924843,35.0428999 172.924843,34.6027935 L172.924843,19.4445904 C172.924843,18.293543 172.679403,17.451429 172.188515,16.9182232 C171.697627,16.3850174 170.99516,16.1184185 170.081093,16.1184185 L167.999062,16.1184185 L167.999062,14.3156841 Z M224.746094,4.61646538 L226.472657,4.61646538 L226.472657,14.3156841 L234.166016,14.3156841 L234.166016,16.6516216 L226.472657,16.6516216 L226.472657,31.9113873 C226.472657,33.2317064 226.785805,34.2430895 227.41211,34.9455669 C228.038415,35.6480444 228.83398,35.9992779 229.798829,35.9992779 C230.949876,35.9992779 231.931637,35.4660801 232.744141,34.3996685 C233.556645,33.3332569 234.030599,31.5728579 234.166016,29.1184185 L235.867188,29.1184185 C235.765625,32.2837989 235.046231,34.6324082 233.708985,36.1643169 C232.371739,37.6962256 230.63673,38.4621685 228.503907,38.4621685 C226.540355,38.4621685 225.004238,37.924739 223.895508,36.8498638 C222.786779,35.7749886 222.232422,34.3658231 222.232422,32.6223248 L222.232422,16.6516216 L218.09375,16.6516216 L218.09375,14.8742779 C219.972666,14.5526617 221.40299,13.7655602 222.384766,12.5129498 C223.840503,10.6340341 224.627604,8.00189897 224.746094,4.61646538 Z M314.779221,13.8840435 C315.151619,15.6613961 315.371669,17.3710145 315.439377,19.0129498 C316.607352,17.1509613 317.834553,15.830662 319.121018,15.0520123 C320.407483,14.2733625 321.812417,13.8840435 323.335862,13.8840435 C324.96087,13.8840435 326.513914,14.3833875 327.995041,15.3820904 C329.476169,16.3807933 330.677979,17.8449714 331.60051,19.7746685 C332.523041,21.7043657 332.984299,23.8794741 332.984299,26.3000591 C332.984299,30.1763806 331.850196,33.3332501 329.581955,35.7707623 C327.70304,37.8020224 325.45176,38.8176373 322.828049,38.8176373 C321.338458,38.8176373 319.992769,38.4367817 318.79094,37.6750591 C317.589111,36.9133366 316.522715,35.7792333 315.591721,34.2727154 L315.591721,43.8957623 C315.591721,44.6405576 315.769454,45.165292 316.124924,45.469981 C316.581958,45.876233 317.216717,46.079356 318.029221,46.079356 L319.781174,46.079356 L319.781174,47.8820904 L307.111252,47.8820904 L307.111252,46.079356 L308.863205,46.079356 C309.675709,46.079356 310.285078,45.9185503 310.69133,45.5969341 C311.097582,45.2753179 311.300705,44.8521451 311.300705,44.3274029 L311.300705,19.2922466 C311.300705,18.124272 311.021411,17.299085 310.462815,16.8166607 C309.904218,16.3342364 308.787042,16.0676375 307.111252,16.016856 L307.111252,14.3156841 L314.779221,13.8840435 Z M322.167893,16.1945904 C320.322832,16.1945904 318.761324,17.0832534 317.483323,18.860606 C316.205321,20.6379586 315.56633,23.2108496 315.56633,26.579356 C315.56633,29.9817168 316.184163,32.4953635 317.419846,34.1203716 C318.655529,35.7453798 320.229732,36.5578716 322.142502,36.5578716 C323.936782,36.5578716 325.316326,35.8638682 326.281174,34.4758404 C327.516857,32.6477062 328.13469,29.9732538 328.13469,26.4524029 C328.13469,22.7622803 327.576102,20.1301451 326.458909,18.5559185 C325.341715,16.9816919 323.911391,16.1945904 322.167893,16.1945904 Z M375.385628,13.6047466 C378.584863,13.6047466 381.272011,14.7600085 383.447152,17.0705669 C385.622293,19.3811254 386.709847,22.4237382 386.709847,26.1984966 C386.709847,28.8052805 386.223198,31.026938 385.249886,32.8635357 C384.276574,34.7001334 382.888567,36.1516163 381.085824,37.2180279 C379.28308,38.2844395 377.340717,38.8176373 375.258675,38.8176373 C372.17793,38.8176373 369.566954,37.6496802 367.425667,35.313731 C365.284381,32.9777818 364.213753,29.9478642 364.213753,26.2238873 C364.213753,22.4829831 365.288612,19.4446021 367.438363,17.1086529 C369.588113,14.7727037 372.237175,13.6047466 375.385628,13.6047466 Z M375.385628,15.407481 C373.489785,15.407481 371.932509,16.2665219 370.713753,17.9846294 C369.494997,19.702737 368.885628,22.415275 368.885628,26.1223248 C368.885628,29.8970832 369.490765,32.6561702 370.701058,34.3996685 C371.91135,36.1431668 373.472858,37.0149029 375.385628,37.0149029 C377.366107,37.0149029 378.969932,36.1431668 380.197152,34.3996685 C381.424371,32.6561702 382.037972,29.8039852 382.037972,25.8430279 C382.037972,22.1698324 381.432835,19.5123069 380.222542,17.8703716 C379.01225,16.2284363 377.399961,15.407481 375.385628,15.407481 Z M416.847504,14.3156841 L427.283051,14.3156841 L427.283051,16.0676373 L425.911957,16.0676373 C425.234871,16.0676373 424.752453,16.1734305 424.464692,16.3850201 C424.17693,16.5966097 424.033051,16.8801355 424.033051,17.235606 C424.033051,17.6080037 424.117686,18.0057862 424.286957,18.4289654 L429.644379,31.8859966 L434.290863,19.0891216 C433.647631,17.7349482 433.080579,16.8928342 432.589692,16.5627544 C432.098804,16.2326747 431.235531,16.0676373 429.999848,16.0676373 L429.999848,14.3156841 L441.47641,14.3156841 L441.47641,16.0676373 L440.511567,16.0676373 C439.631354,16.0676373 439.026217,16.1818939 438.696137,16.4104107 C438.366057,16.6389275 438.20102,16.9563071 438.20102,17.3625591 C438.20102,17.6672482 438.277191,18.0227133 438.429535,18.4289654 L443.837738,31.8859966 L448.128754,19.9270123 C448.416516,19.1314354 448.560395,18.4543588 448.560395,17.8957623 C448.560395,17.3371657 448.340345,16.9055294 447.900238,16.6008404 C447.460132,16.2961514 446.630713,16.1184188 445.411957,16.0676373 L445.411957,14.3156841 L454.679535,14.3156841 L454.679535,16.0676373 C453.528488,16.2538361 452.656752,16.613533 452.064301,17.1467388 C451.47185,17.6799446 450.972506,18.4966682 450.566254,19.5969341 L443.660004,38.8176373 L442.187348,38.8176373 L435.484223,22.1359966 L429.492035,38.8176373 L428.019379,38.8176373 L419.488129,17.7941998 C419.217294,17.1340402 418.91261,16.6897087 418.574067,16.4611919 C418.235523,16.2326752 417.660008,16.1014916 416.847504,16.0676373 L416.847504,14.3156841 Z M507.008599,26.376231 L489.971489,26.376231 C490.056125,29.9986449 490.733202,32.554609 492.002739,34.0441998 C493.458476,35.7199894 495.311973,36.5578716 497.563286,36.5578716 C500.881011,36.5578716 503.547,34.6705207 505.561333,30.8957623 L507.211724,31.6066998 C504.740357,36.4140155 501.168778,38.8176373 496.49688,38.8176373 C493.314572,38.8176373 490.635888,37.6666071 488.460747,35.3645123 C486.285606,33.0624174 485.198052,30.1171344 485.198052,26.5285748 C485.198052,22.6691805 486.268679,19.5503965 488.409966,17.1721294 C490.551253,14.7938623 493.18762,13.6047466 496.319146,13.6047466 C498.62124,13.6047466 500.610153,14.1971886 502.285943,15.3820904 C503.961732,16.5669921 505.222787,18.268147 506.069146,20.485606 C506.661597,22.0429055 506.974744,24.0064275 507.008599,26.376231 Z M489.971489,24.5734966 L500.280083,24.5734966 C500.889461,24.5734966 501.363415,24.3661419 501.701958,23.9514263 C502.040502,23.5367107 502.209771,22.830012 502.209771,21.8313091 C502.209771,19.9693207 501.630024,18.3866542 500.470513,17.0832623 C499.311002,15.7798703 497.944154,15.1281841 496.369927,15.1281841 C494.609501,15.1281841 493.115701,15.9152856 491.888482,17.4895123 C490.661262,19.0637389 490.022271,21.4250434 489.971489,24.5734966 Z M537.349381,14.3156841 L545.906022,13.8840435 L545.906022,23.5070904 C546.820089,20.34171 547.920338,17.9465516 549.206803,16.3215435 C550.493268,14.6965354 552.084397,13.8840435 553.98024,13.8840435 C555.266705,13.8840435 556.295015,14.2775943 557.065201,15.0647076 C557.835387,15.8518209 558.220475,16.9055213 558.220475,18.2258404 C558.220475,19.292252 557.962339,20.1216707 557.446061,20.7141216 C556.929782,21.3065725 556.282328,21.6027935 555.503678,21.6027935 C554.741955,21.6027935 554.128355,21.3488898 553.662857,20.8410748 C553.19736,20.3332597 552.964615,19.6477197 552.964615,18.7844341 C552.964615,18.2258376 553.100031,17.7011032 553.370865,17.2102154 C553.624773,16.770109 553.751725,16.5077418 553.751725,16.423106 C553.751725,16.1691985 553.590919,16.0422466 553.269303,16.0422466 C552.575289,16.0422466 551.788187,16.4484926 550.907975,17.2609966 C549.689219,18.3951169 548.749775,19.952393 548.089615,21.9328716 C547.073985,25.0136162 546.566178,27.4764822 546.566178,29.3215435 L546.566178,34.4250591 C546.566178,35.0005828 546.769301,35.4406826 547.175553,35.7453716 C547.581805,36.0500607 548.275808,36.2024029 549.257584,36.2024029 L552.279068,36.2024029 L552.279068,38.1066998 L537.501725,38.1066998 L537.501725,36.2024029 L539.863053,36.2024029 C540.65863,36.2024029 541.259535,36.0458289 541.665787,35.7326763 C542.072039,35.4195237 542.275162,35.0428999 542.275162,34.6027935 L542.275162,19.4445904 C542.275162,18.293543 542.029722,17.451429 541.538834,16.9182232 C541.047946,16.3850174 540.345479,16.1184185 539.431412,16.1184185 L537.349381,16.1184185 L537.349381,14.3156841 Z M590.694069,29.1438091 C591.743554,32.0722092 592.949596,34.0992071 594.312233,35.2248638 C595.67487,36.3505205 597.354867,36.9133404 599.352272,36.9133404 C601.197334,36.9133404 602.614963,36.5113262 603.605202,35.7072857 C604.595441,34.9032452 605.090554,33.8833986 605.090554,32.6477154 C605.090554,31.9367743 604.908589,31.3147102 604.544655,30.7815044 C604.180721,30.2482986 603.677145,29.8505162 603.033913,29.5881451 C602.390681,29.325774 600.72338,28.9406867 598.03196,28.4328716 C595.45903,27.9250566 593.664778,27.3918588 592.649147,26.8332623 C591.633517,26.2746657 590.842184,25.5044911 590.275124,24.5227154 C589.708064,23.5409396 589.424538,22.474544 589.424538,21.3234966 C589.424538,19.5799983 590.008517,17.9973319 591.176491,16.5754498 C592.683009,14.7642428 594.79041,13.8586529 597.498757,13.8586529 C599.563871,13.8586529 601.476613,14.5103391 603.237038,15.813731 L604.912819,14.0363873 L605.953835,14.0363873 L606.613991,22.516856 L604.912819,22.516856 C604.168024,20.1131982 603.160873,18.3824212 601.891335,17.3244732 C600.621797,16.2665252 599.056058,15.7375591 597.194069,15.7375591 C595.585988,15.7375591 594.324933,16.1311099 593.410866,16.9182232 C592.496799,17.7053365 592.039772,18.6659389 592.039772,19.8000591 C592.039772,20.798762 592.462945,21.6281808 593.309304,22.2883404 C594.138735,22.9654271 595.763719,23.4986249 598.184304,23.8879498 C600.994214,24.3619105 602.82232,24.7596929 603.668679,25.0813091 C605.056706,25.5891242 606.131566,26.3719939 606.893288,27.4299419 C607.655011,28.4878899 608.035866,29.7785671 608.035866,31.3020123 C608.035866,33.4009811 607.210679,35.1783071 605.56028,36.6340435 C603.909881,38.0897799 601.815176,38.8176373 599.276101,38.8176373 C596.923224,38.8176373 594.739652,38.0389992 592.725319,36.4816998 L590.871804,38.6145123 L589.526101,38.6145123 L589.018288,29.1438091 L590.694069,29.1438091 Z" id="ahart-powers" fill="#FFFFFF"></path>
                        <g id="R-&amp;-S" transform="translate(537.000000, 13.000000)" fill="#000000">
                            <path d="M0.349380935,1.31568413 L8.90602156,0.884043502 L8.90602156,10.5070904 C9.82008863,7.34170997 10.920338,4.94655163 12.2068028,3.3215435 C13.4932676,1.69653538 15.0843975,0.884043502 16.9802403,0.884043502 C18.2667051,0.884043502 19.2950151,1.27759425 20.0652012,2.06470756 C20.8353874,2.85182087 21.2204747,3.90552128 21.2204747,5.22584038 C21.2204747,6.29225196 20.9623392,7.12167075 20.4460606,7.71412163 C19.929782,8.30657251 19.2823275,8.6027935 18.5036778,8.6027935 C17.7419553,8.6027935 17.1283546,8.34888979 16.6628575,7.84107475 C16.1973604,7.33325971 15.9646153,6.64771969 15.9646153,5.78443413 C15.9646153,5.22583758 16.1000306,4.70110325 16.3708653,4.21021538 C16.6247728,3.77010901 16.7517247,3.50774184 16.7517247,3.423106 C16.7517247,3.16919848 16.590919,3.04224663 16.2693028,3.04224663 C15.5752889,3.04224663 14.7881874,3.44849256 13.9079747,4.26099663 C12.6892186,5.39511688 11.7497749,6.95239297 11.0896153,8.93287163 C10.0739852,12.0136162 9.56617781,14.4764822 9.56617781,16.3215435 L9.56617781,21.4250591 C9.56617781,22.0005828 9.76930078,22.4406826 10.1755528,22.7453716 C10.5818048,23.0500607 11.2758083,23.2024029 12.2575841,23.2024029 L15.2790684,23.2024029 L15.2790684,25.1066998 L0.501724685,25.1066998 L0.501724685,23.2024029 L2.86305281,23.2024029 C3.6586297,23.2024029 4.25953515,23.0458289 4.66578719,22.7326763 C5.07203922,22.4195237 5.27516219,22.0428999 5.27516219,21.6027935 L5.27516219,6.44459038 C5.27516219,5.29354295 5.02972193,4.45142898 4.53883406,3.91822319 C4.04794619,3.3850174 3.34547926,3.1184185 2.43141219,3.1184185 L0.349380935,3.1184185 L0.349380935,1.31568413 Z" id="Path-Copy-5"></path>
                            <path d="M53.6940694,16.1438091 C54.7435538,19.0722092 55.9495964,21.0992071 57.3122334,22.2248638 C58.6748704,23.3505205 60.3548667,23.9133404 62.3522725,23.9133404 C64.1973338,23.9133404 65.6149628,23.5113262 66.6052022,22.7072857 C67.5954415,21.9032452 68.0905537,20.8833986 68.0905537,19.6477154 C68.0905537,18.9367743 67.9085894,18.3147102 67.5446553,17.7815044 C67.1807212,17.2482986 66.6771455,16.8505162 66.0339131,16.5881451 C65.3906807,16.325774 63.7233797,15.9406867 61.03196,15.4328716 C58.4590304,14.9250566 56.6647776,14.3918588 55.6491475,13.8332623 C54.6335174,13.2746657 53.8421842,12.5044911 53.275124,11.5227154 C52.7080639,10.5409396 52.4245381,9.47454405 52.4245381,8.32349663 C52.4245381,6.57999833 53.0085166,4.99733186 54.1764912,3.57544975 C55.6830092,1.76424278 57.79041,0.858652877 60.4987569,0.858652877 C62.5638713,0.858652877 64.4766126,1.51033907 66.2370381,2.813731 L67.9128194,1.03638725 L68.953835,1.03638725 L69.6139912,9.516856 L67.9128194,9.516856 C67.168024,7.11319815 66.1608726,5.38242119 64.891335,4.32447319 C63.6217974,3.26652519 62.0560578,2.73755913 60.1940694,2.73755913 C58.5859884,2.73755913 57.3249333,3.13110988 56.4108662,3.91822319 C55.4967992,4.7053365 55.0397725,5.66593887 55.0397725,6.80005913 C55.0397725,7.79876204 55.4629453,8.62818083 56.3093037,9.28834038 C57.138735,9.9654271 58.7637187,10.4986249 61.1843037,10.8879498 C63.9942136,11.3619105 65.8223203,11.7596929 66.6686787,12.0813091 C68.0567065,12.5891242 69.1315655,13.3719939 69.8932881,14.4299419 C70.6550107,15.4878899 71.0358662,16.7785671 71.0358662,18.3020123 C71.0358662,20.4009811 70.2106792,22.1783071 68.5602803,23.6340435 C66.9098814,25.0897799 64.8151758,25.8176373 62.2761006,25.8176373 C59.9232243,25.8176373 57.7396523,25.0389992 55.7253194,23.4816998 L53.8718037,25.6145123 L52.5261006,25.6145123 L52.0182881,16.1438091 L53.6940694,16.1438091 Z" id="Path-Copy-4"></path>
                        </g>
                        <g id="A-&amp;-H">
                            <path d="M24.8731236,35.4914654 L25.7871861,36.9133404 C24.5515028,38.182878 23.1804228,38.8176373 21.6739049,38.8176373 C20.5228574,38.8176373 19.5537916,38.5044893 18.7666783,37.8781841 C17.979565,37.2518789 17.2897932,36.1516295 16.6973424,34.5774029 C15.0892614,36.2701197 13.6758641,37.3999912 12.457108,37.9670513 C11.2383519,38.5341114 9.77417383,38.8176373 8.06452986,38.8176373 C5.62701767,38.8176373 3.77352058,38.2929029 2.50398299,37.2434185 C1.23444539,36.1939341 0.599686111,34.8482444 0.599686111,33.2063091 C0.599686111,30.7349426 2.05116899,28.6825543 4.9541783,27.0490826 C7.85718761,25.4156109 11.7207557,24.3280566 16.5449986,23.7863873 L16.5449986,20.1809185 C16.5449986,18.8944537 16.0287277,17.7942043 14.9961705,16.8801373 C13.9636132,15.9660702 12.6517774,15.5090435 11.0606236,15.5090435 C9.58796,15.5090435 8.31844144,15.813728 7.25202986,16.423106 C6.4903073,16.8801395 6.10945174,17.3287028 6.10945174,17.7688091 C6.10945174,18.0227166 6.3125747,18.4204991 6.71882674,18.9621685 C7.20971461,19.6392552 7.45515486,20.2401607 7.45515486,20.7649029 C7.45515486,21.5266254 7.20971461,22.1486895 6.71882674,22.6311138 C6.22793887,23.1135381 5.58471613,23.3547466 4.78913924,23.3547466 C3.94278084,23.3547466 3.23608218,23.0669891 2.66902205,22.4914654 C2.10196192,21.9159417 1.81843611,21.1796209 1.81843611,20.282481 C1.81843611,18.6066914 2.76211157,17.0748057 4.6494908,15.6867779 C6.53687003,14.2987501 9.01243121,13.6047466 12.0762486,13.6047466 C14.9030857,13.6047466 17.0612672,14.2141155 18.550858,15.4328716 C20.0404488,16.6685549 20.785233,18.1665868 20.785233,19.9270123 L20.785233,32.9270123 C20.785233,34.0780597 20.971429,34.9244054 21.3438267,35.4660748 C21.7162244,36.0246713 22.1986415,36.3039654 22.7910924,36.3039654 C23.4512519,36.3039654 24.1452554,36.0331348 24.8731236,35.4914654 Z" id="Path-Copy-3" fill="#000000"></path>
                            <path d="M16.5449986,25.4621685 C12.2454979,26.0546194 9.19865342,27.0194535 7.40437361,28.3566998 C6.06712734,29.3723298 5.39851424,30.8111175 5.39851424,32.673106 C5.39851424,33.9764979 5.74551597,34.9963445 6.43952986,35.7326763 C7.13354375,36.4690081 8.03913365,36.8371685 9.15632674,36.8371685 C11.1537326,36.8371685 12.8845095,36.0796891 14.3487095,34.5647076 C15.8129096,33.049726 16.5449986,31.1496799 16.5449986,28.8645123 L16.5449986,25.4621685 Z" id="Path-Copy-2" fill="#FFFFFF"></path>
                            <path d="M54.0469517,0.553965377 L63.0606236,0.122324752 L63.0606236,18.454356 C64.313234,16.8293479 65.6589237,15.6148418 67.097733,14.8108013 C68.5365423,14.0067608 70.0599645,13.6047466 71.6680455,13.6047466 C73.1914906,13.6047466 74.5625706,13.9686753 75.7813267,14.6965435 C76.7292481,15.2720672 77.5375083,16.2792186 78.2061314,17.7180279 C78.8747546,19.1568372 79.2090611,20.857992 79.2090611,22.8215435 L79.2090611,34.1203716 C79.2090611,34.8482398 79.3952572,35.3772059 79.7676549,35.7072857 C80.1400526,36.0373655 80.7240311,36.2024029 81.519608,36.2024029 L83.550858,36.2024029 L83.550858,38.1066998 L70.7032017,38.1066998 L70.7032017,36.2024029 L72.1250767,36.2024029 C73.2084155,36.2024029 73.9574314,36.028902 74.372147,35.6818951 C74.7868627,35.3348881 74.9942174,34.8143855 74.9942174,34.1203716 L74.9942174,22.8215435 C74.9942174,20.8410648 74.516032,19.2964839 73.559647,18.1877544 C72.6032621,17.0790249 71.3802925,16.5246685 69.8907017,16.5246685 C68.7227271,16.5246685 67.6394046,16.8378164 66.6407017,17.4641216 C65.6419988,18.0904268 64.7956531,19.0425658 64.1016392,20.3205669 C63.4076253,21.5985681 63.0606236,22.9484895 63.0606236,24.3703716 L63.0606236,33.8664654 C63.0606236,34.7128238 63.2383562,35.3137292 63.5938267,35.6691998 C63.9492973,36.0246703 64.5332758,36.2024029 65.3457799,36.2024029 L67.3770299,36.2024029 L67.3770299,38.1066998 L54.8086705,38.1066998 L54.8086705,36.2024029 L56.2305455,36.2024029 C57.1953941,36.2024029 57.8809341,36.0119751 58.2871861,35.6311138 C58.6934381,35.2502525 58.8965611,34.6620423 58.8965611,33.8664654 L58.8965611,5.47974663 C58.8965611,4.46411655 58.6299622,3.70663714 58.0967564,3.20728569 C57.5635506,2.70793423 56.7891443,2.45826225 55.7735142,2.45826225 L54.0469517,2.45826225 L54.0469517,0.553965377 Z" id="Path-Copy" fill="#000000"></path>
                        </g>
                    </g>
                </g>
            </g>
        </g>
    </g>
</svg>