<?xml version="1.0" encoding="UTF-8"?>
<svg width="147px" height="149px" viewBox="0 0 147 149" version="1.1" xmlns="http://www.w3.org/2000/svg" xmlns:xlink="http://www.w3.org/1999/xlink">
    <!-- Generator: Sketch 43.2 (39069) - http://www.bohemiancoding.com/sketch -->
    <title>Group Copy</title>
    <desc>Created with Sketch.</desc>
    <defs></defs>
    <g id="Page-1" stroke="none" stroke-width="1" fill="none" fill-rule="evenodd">
        <g id="Group-Copy">
            <rect id="Rectangle" fill="#448AA6" x="0" y="0" width="147" height="148" rx="5"></rect>
            <g id="iconmonstr-photo-camera-2-copy" transform="translate(74.000000, 67.500000) scale(-1, 1) translate(-74.000000, -67.500000) translate(28.000000, 35.000000)" fill-rule="nonzero" fill="#FFFFFF">
                <path d="M7.66666667,3.66666667 L7.66666667,0 L19.1666667,0 L19.1666667,3.66666667 L92,3.66666667 L92,65 L0,65 L0,3.66666667 L7.66666667,3.66666667 Z M84.3333333,11.3333333 L7.66666667,11.3333333 L7.66666667,57.3333333 L84.3333333,57.3333333 L84.3333333,11.3333333 Z M34.5,26.6666667 L15.3333333,26.6666667 L15.3333333,19 L34.5,19 L34.5,26.6666667 Z M7.66666667,3.66666667 L7.66666667,3.83333333 L19.1666667,3.83333333 L19.1666667,3.66666667 L7.66666667,3.66666667 Z M61.3333333,19 C69.8011667,19 76.6666667,25.8655 76.6666667,34.3333333 C76.6666667,42.8011667 69.8011667,49.6666667 61.3333333,49.6666667 C52.8655,49.6666667 46,42.8011667 46,34.3333333 C46,25.8655 52.8655,19 61.3333333,19 Z M61.3333333,26.6666667 C57.1051667,26.6666667 53.6666667,30.1051667 53.6666667,34.3333333 C53.6666667,38.5615 57.1051667,42 61.3333333,42 C65.5615,42 69,38.5615 69,34.3333333 C69,30.1051667 65.5615,26.6666667 61.3333333,26.6666667 Z" id="Shape"></path>
            </g>
            <path d="M46.8407197,62.8580189 L22.0000249,0.990628103 L22.5316454,1.00240663 L56.5,56.5 L65,56.5 L69.5,59.5 L68.9181124,61.6335878 C70.5419187,63.8164092 71.5,66.6407128 71.5,70 C71.5,78.4360923 65.4578608,83.4983106 58.0037317,83.4999996 L2.5,143 L44.503628,69.7270044 C44.5656151,67.3875125 45.4190175,64.9732278 46.8407197,62.8580189 Z M46.8407197,62.8580189 L47.5,64.5 L44.503628,69.7270044 C44.5012137,69.8181238 44.5,69.9091297 44.5,70 C44.5,76.4125 50.5441559,83.5 58,83.5 C58.001244,83.5 58.0024879,83.4999999 58.0037317,83.4999996 L65,76 L68.9181124,61.6335878 C66.463415,58.3338308 62.4873912,56.5 58,56.5 C53.3625162,56.5 49.2711798,59.2419798 46.8407197,62.8580189 Z" id="Combined-Shape" fill="#FFFFFF"></path>
            <g id="iconmonstr-photo-camera-2" transform="translate(78.000000, 60.000000) scale(-1, 1) translate(-78.000000, -60.000000) translate(43.000000, 35.000000)" fill="#FFFFFF">
                <path d="M27.5,26.6666667 L8.33333333,26.6666667 L8.33333333,19 L27.5,19 L27.5,26.6666667 Z M12.1666667,3.83333333 L0.666666667,3.83333333 L0.666666667,0 L12.1666667,0 L12.1666667,3.83333333 Z M54.3333333,19 C62.8011667,19 69.6666667,25.8655 69.6666667,34.3333333 C69.6666667,42.8011667 62.8011667,49.6666667 54.3333333,49.6666667 C45.8655,49.6666667 39,42.8011667 39,34.3333333 C39,25.8655 45.8655,19 54.3333333,19 Z M54.3333333,26.6666667 C50.1051667,26.6666667 46.6666667,30.1051667 46.6666667,34.3333333 C46.6666667,38.5615 50.1051667,42 54.3333333,42 C58.5615,42 62,38.5615 62,34.3333333 C62,30.1051667 58.5615,26.6666667 54.3333333,26.6666667 Z" id="Shape" fill-rule="nonzero"></path>
                <path d="M54.3333333,19 C62.8011667,19 69.6666667,25.8655 69.6666667,34.3333333 C69.6666667,42.8011667 62.8011667,49.6666667 54.3333333,49.6666667 C45.8655,49.6666667 39,42.8011667 39,34.3333333 C39,25.8655 45.8655,19 54.3333333,19 Z M54.3333333,26.6666667 C50.1051667,26.6666667 46.6666667,30.1051667 46.6666667,34.3333333 C46.6666667,38.5615 50.1051667,42 54.3333333,42 C58.5615,42 62,38.5615 62,34.3333333 C62,30.1051667 58.5615,26.6666667 54.3333333,26.6666667 Z" id="Combined-Shape"></path>
            </g>
            <polygon id="Path-4" fill="#FFFFFF" transform="translate(89.155381, 120.719351) rotate(20.000000) translate(-89.155381, -120.719351) " points="120.909654 138.246498 57.4011082 95.3293996 99.3067786 146.109302"></polygon>
            <polygon id="Path-5" fill="#FFFFFF" transform="translate(94.024705, 27.807335) rotate(-51.000000) translate(-94.024705, -27.807335) " points="61.8480341 31.2540646 126.201377 24.9376856 125.754163 24.3606063 69.217245 25.2865954"></polygon>
        </g>
    </g>
</svg>