<?xml version="1.0" encoding="UTF-8"?>
<svg width="45px" height="44px" viewBox="0 0 45 44" version="1.1" xmlns="http://www.w3.org/2000/svg" xmlns:xlink="http://www.w3.org/1999/xlink">
    <!-- Generator: Sketch 43.2 (39069) - http://www.bohemiancoding.com/sketch -->
    <title>Shape</title>
    <desc>Created with Sketch.</desc>
    <defs></defs>
    <g id="Mockups" stroke="none" stroke-width="1" fill="none" fill-rule="evenodd">
        <g id="Desktop" transform="translate(-562.000000, -584.000000)" fill-rule="nonzero" fill="#000000">
            <g id="basic-layout" transform="translate(315.000000, 51.000000)">
                <g id="navBar" transform="translate(247.000000, 533.000000)">
                    <g id="iconmonstr-github-1">
                        <path d="M22.5,0 C10.07625,0 0,10.074375 0,22.5 C0,32.44125 6.44625,40.875 15.388125,43.850625 C16.51125,44.05875 16.875,43.36125 16.875,42.76875 L16.875,38.58 C10.61625,39.94125 9.313125,35.925 9.313125,35.925 C8.289375,33.324375 6.81375,32.6325 6.81375,32.6325 C4.771875,31.235625 6.969375,31.265625 6.969375,31.265625 C9.22875,31.423125 10.4175,33.585 10.4175,33.585 C12.42375,37.02375 15.680625,36.03 16.965,35.454375 C17.165625,34.00125 17.74875,33.0075 18.39375,32.446875 C13.396875,31.875 8.143125,29.945625 8.143125,21.32625 C8.143125,18.868125 9.0225,16.861875 10.460625,15.286875 C10.228125,14.71875 9.4575,12.429375 10.68,9.331875 C10.68,9.331875 12.57,8.728125 16.869375,11.638125 C18.66375,11.139375 20.5875,10.89 22.5,10.880625 C24.4125,10.89 26.338125,11.139375 28.13625,11.638125 C32.431875,8.728125 34.318125,9.331875 34.318125,9.331875 C35.5425,12.43125 34.771875,14.720625 34.539375,15.286875 C35.983125,16.861875 36.855,18.87 36.855,21.32625 C36.855,29.968125 31.591875,31.87125 26.581875,32.428125 C27.388125,33.125625 28.125,34.494375 28.125,36.594375 L28.125,42.76875 C28.125,43.366875 28.485,44.07 29.626875,43.84875 C38.56125,40.869375 45,32.4375 45,22.5 C45,10.074375 34.925625,0 22.5,0 Z" id="Shape"></path>
                    </g>
                </g>
            </g>
        </g>
    </g>
</svg>