<?xml version="1.0" encoding="UTF-8"?>
<svg width="1914px" height="2043px" viewBox="0 0 1914 2043" version="1.1" xmlns="http://www.w3.org/2000/svg" xmlns:xlink="http://www.w3.org/1999/xlink">
    <!-- Generator: Sketch 43.2 (39069) - http://www.bohemiancoding.com/sketch -->
    <title>Combined Shape</title>
    <desc>Created with Sketch.</desc>
    <defs></defs>
    <g id="Logo" stroke="none" stroke-width="1" fill="none" fill-rule="evenodd">
        <path d="M1009.35746,342.325832 L1009.41992,408.052734 C1082.57227,305.740234 1136,257 1206.50195,220.005859 C1277.00391,183.011719 1311.41602,170.607422 1418.24414,170.607422 C1525.07227,170.607422 1595.33398,201.779297 1674.20313,251.509766 C1753.07227,301.240234 1808.57227,374.240234 1853.47656,464.138672 C1898.38086,554.037109 1913.66602,632.740234 1913.66602,717.408203 C1913.66602,873.240234 1860.57227,1011.24023 1757.54883,1114.94336 C1658.62082,1214.52404 1556.07227,1269.28711 1424.85352,1269.28711 C1329.06715,1269.28711 1242.57227,1242.24023 1173.99805,1202.1582 C1105.42383,1162.07617 1055.58682,1107.36691 1009.03711,1032.04102 L1009.03711,1843.19336 C1009.03711,1880.43313 1037.92374,1906.66985 1055.69727,1921.9043 C1078.54894,1942.2169 1110.28691,1952.37305 1150.91211,1952.37305 L1238.50977,1952.37305 L1238.50977,2042.50977 L23.5722656,2042.37695 C23.5722656,2042.37695 23.5722656,1118.24023 23.5722656,1118.24023 C99.5722656,1192.1582 171.067016,1224.14948 231.072266,1230.24023 C364.072266,1243.74023 497.572266,1192.1582 589.572266,1127.24023 C681.572266,1062.32227 765.572266,949.477345 765.572266,923.240234 L765.572266,829.099057 C720.626214,977.443879 576.691904,1084.48873 527.462891,1115.56348 C478.072266,1146.74023 388.794649,1191.18555 313.175781,1191.18555 C205.362742,1191.18555 143.38114,1164.97614 87.2285156,1118.55664 C31.0758911,1072.13714 0,972.616249 0,899.992187 C0,790.681745 68.90625,683.240234 195.602539,627.65332 C333.175781,571.740234 656.273438,435.341797 656.273438,435.341797 L656.273438,275.869141 C656.273438,218.967814 655.462891,154.65625 618.767578,109.873047 C582.072266,65.0898437 518.072266,65.2285156 502.695312,65.2285156 C399.072266,65.0898437 317.072266,96.7402344 297.701172,157.179687 C278.330078,217.619141 307.269531,247.158203 310.222656,289.699219 C313.175781,332.240234 303.366645,350.905167 281.654297,372.243164 C259.941949,393.581161 235.491712,404.25 200.302734,404.25 C162.867651,404.25 131.609826,391.522263 106.52832,366.066406 C81.4468147,340.61055 68.90625,317.740234 68.90625,268.361328 C68.90625,242.240234 92.0722656,157.179687 176.072266,91.2402344 C260.072266,25.3007813 329.572266,1.1584629e-13 527.617188,0 C527.462891,1.30948721e-13 1873.07227,0.240234375 1873.07227,0.240234375 C1873.07227,0.240234375 1872.57227,27.2402344 1877.07227,411.240234 C1757.54883,157.179687 1305,-52 1010.07227,341.240234 C1009.83655,341.58802 1009.59828,341.949924 1009.35748,342.325798 Z" id="Combined-Shape" fill="#000000"></path>
    </g>
</svg>