<?xml version="1.0" encoding="UTF-8"?>
<svg width="45px" height="45px" viewBox="0 0 45 45" version="1.1" xmlns="http://www.w3.org/2000/svg" xmlns:xlink="http://www.w3.org/1999/xlink">
    <!-- Generator: Sketch 43.2 (39069) - http://www.bohemiancoding.com/sketch -->
    <title>Shape</title>
    <desc>Created with Sketch.</desc>
    <defs></defs>
    <g id="Mockups" stroke="none" stroke-width="1" fill="none" fill-rule="evenodd">
        <g id="Desktop" transform="translate(-1441.000000, -584.000000)" fill-rule="nonzero" fill="#000000">
            <g id="basic-layout" transform="translate(315.000000, 51.000000)">
                <g id="navBar" transform="translate(247.000000, 533.000000)">
                    <g id="iconmonstr-email-10" transform="translate(879.000000, 0.000000)">
                        <path d="M22.5,8.00141203e-16 C10.074375,8.00141203e-16 0,10.074375 0,22.5 C0,34.925625 10.074375,45 22.5,45 C34.925625,45 45,34.925625 45,22.5 C45,10.074375 34.925625,0 22.5,0 L22.5,8.00141203e-16 Z M35.60625,13.0875 L22.5,23.71125 L9.391875,13.0875 L35.60625,13.0875 Z M35.625,31.8375 L9.375,31.8375 L9.375,15.890625 L22.5,26.5275 L35.625,15.8925 L35.625,31.8375 Z" id="Shape"></path>
                    </g>
                </g>
            </g>
        </g>
    </g>
</svg>