<?xml version="1.0" encoding="UTF-8"?>
<svg width="557px" height="653px" viewBox="0 0 557 653" version="1.1" xmlns="http://www.w3.org/2000/svg" xmlns:xlink="http://www.w3.org/1999/xlink">
    <!-- Generator: Sketch 43.2 (39069) - http://www.bohemiancoding.com/sketch -->
    <title>iphone</title>
    <desc>Created with Sketch.</desc>
    <defs>
        <linearGradient x1="61.3408793%" y1="61.9584058%" x2="64.7087819%" y2="64.1336897%" id="linearGradient-1">
            <stop stop-color="#F2F2F2" offset="0%"></stop>
            <stop stop-color="#9EAFB6" offset="100%"></stop>
        </linearGradient>
        <linearGradient x1="63.3129489%" y1="54.6938218%" x2="73.8523357%" y2="62.7246699%" id="linearGradient-2">
            <stop stop-color="#F1F1F1" offset="0%"></stop>
            <stop stop-color="#D5DBDD" offset="100%"></stop>
        </linearGradient>
        <linearGradient x1="18.4012797%" y1="89.3048682%" x2="24.706393%" y2="103.415434%" id="linearGradient-3">
            <stop stop-color="#F2F2F2" offset="0%"></stop>
            <stop stop-color="#D8DDE0" offset="100%"></stop>
        </linearGradient>
        <path d="M391.678124,11.1403156 L492.443258,82.6577393 L540.727138,119.429148 C540.727138,119.429148 558.721718,130.678051 537.781366,158.396497 C516.841015,186.114942 370.701127,376.23281 370.701127,376.23281 L172.039111,635.656658 C172.039111,635.656658 159.318732,651.876727 141.724439,644.53062 C124.130147,637.184513 92.6075677,599.412387 92.6075677,599.412387 L1.87356266,499.646561 L391.678124,11.1403156 Z" id="path-4"></path>
        <linearGradient x1="13.6502404%" y1="13.072219%" x2="85.2550415%" y2="100%" id="linearGradient-5">
            <stop stop-color="#C3C2C4" offset="0%"></stop>
            <stop stop-color="#F2F2F2" offset="100%"></stop>
        </linearGradient>
        <linearGradient x1="66.2559589%" y1="16.7348625%" x2="63.435756%" y2="-1.95240752%" id="linearGradient-6">
            <stop stop-color="#F2F2F2" offset="0%"></stop>
            <stop stop-color="#B6B5B8" offset="100%"></stop>
        </linearGradient>
        <linearGradient x1="12.494769%" y1="15.1177052%" x2="17.580867%" y2="24.0787327%" id="linearGradient-7">
            <stop stop-color="#4C4B4B" offset="0%"></stop>
            <stop stop-color="#D8D8D8" offset="100%"></stop>
        </linearGradient>
        <linearGradient x1="13.2113744%" y1="18.6902963%" x2="85.0106413%" y2="84.3029663%" id="linearGradient-8">
            <stop stop-color="#332E2E" stop-opacity="0.772560009" offset="0%"></stop>
            <stop stop-color="#A69797" stop-opacity="0.5" offset="100%"></stop>
        </linearGradient>
        <path d="M6.61987305,2.40008545 L27.9698025,17.8799438 C27.9698025,17.8799438 28.5840838,18.5479223 28.7700195,19.4411621 C28.9559552,20.3344019 28.7475606,20.9166089 28.2173462,21.7046509 C27.6026525,22.6182519 26.9738335,23.1729815 26.2941284,23.2357788 C25.6144233,23.2985761 24.9481812,23.1743774 24.3119507,22.7744751 C23.2627859,22.1150231 2.98828125,6.81079102 2.98828125,6.81079102 C2.98828125,6.81079102 2.94004728,4.5367875 3.57558361,3.76490459 C4.00091621,3.24832207 5.24840402,2.63227421 6.00860596,2.40008545 C6.76880789,2.16789669 6.61987305,2.40008545 6.61987305,2.40008545 Z" id="path-9"></path>
        <linearGradient x1="29.593332%" y1="29.9076369%" x2="66.5705304%" y2="60.5421361%" id="linearGradient-10">
            <stop stop-color="#F1EFEF" offset="0%"></stop>
            <stop stop-color="#B4AFAF" offset="100%"></stop>
        </linearGradient>
        <path d="M24.1709246,23.1910396 L1.14625723,6.06002651 C1.14625723,6.06002651 -0.758626481,3.80553068 1.03627739,1.57244466 C2.83118127,-0.660641372 5.30589561,0.804806835 5.30589561,0.804806835 L28.2400771,17.4505562 C28.2400771,17.4505562 30.4727749,19.5552546 28.4499751,22.2531892 C26.4271754,24.9511238 24.1709246,23.1910396 24.1709246,23.1910396 Z" id="path-11"></path>
        <filter x="-8.6%" y="-10.7%" width="117.3%" height="121.4%" filterUnits="objectBoundingBox" id="filter-12">
            <feGaussianBlur stdDeviation="2" in="SourceAlpha" result="shadowBlurInner1"></feGaussianBlur>
            <feOffset dx="0" dy="0" in="shadowBlurInner1" result="shadowOffsetInner1"></feOffset>
            <feComposite in="shadowOffsetInner1" in2="SourceAlpha" operator="arithmetic" k2="-1" k3="1" result="shadowInnerInner1"></feComposite>
            <feColorMatrix values="0 0 0 0 0   0 0 0 0 0   0 0 0 0 0  0 0 0 0.551290761 0" type="matrix" in="shadowInnerInner1"></feColorMatrix>
        </filter>
        <linearGradient x1="70.3497234%" y1="68.5148078%" x2="34.7434595%" y2="40.578129%" id="linearGradient-13">
            <stop stop-color="#EDEDED" offset="0%"></stop>
            <stop stop-color="#D6D6D6" offset="100%"></stop>
        </linearGradient>
        <linearGradient x1="81.338729%" y1="50%" x2="53.3254987%" y2="28.903475%" id="linearGradient-14">
            <stop stop-color="#DADADA" stop-opacity="0.00968070652" offset="0%"></stop>
            <stop stop-color="#090909" offset="0%"></stop>
            <stop stop-color="#FFFFFF" offset="100%"></stop>
        </linearGradient>
        <path d="M449.045242,286.998103 C449.48602,286.005988 471.997004,256.753025 473.341451,255.596443 C474.685897,254.43986 476.928231,253.299427 480.040461,255.781725 C475.948641,261.49311 451.564058,292.808999 451.564058,292.808999 C451.564058,292.808999 449.877298,292.288369 449.045242,290.946662 C448.213186,289.604955 448.604464,287.990218 449.045242,286.998103 Z" id="path-15"></path>
        <filter x="-15.9%" y="-13.0%" width="125.4%" height="120.8%" filterUnits="objectBoundingBox" id="filter-16">
            <feMorphology radius="0.5" operator="dilate" in="SourceAlpha" result="shadowSpreadOuter1"></feMorphology>
            <feOffset dx="-1" dy="-1" in="shadowSpreadOuter1" result="shadowOffsetOuter1"></feOffset>
            <feGaussianBlur stdDeviation="1" in="shadowOffsetOuter1" result="shadowBlurOuter1"></feGaussianBlur>
            <feComposite in="shadowBlurOuter1" in2="SourceAlpha" operator="out" result="shadowBlurOuter1"></feComposite>
            <feColorMatrix values="0 0 0 0 0   0 0 0 0 0   0 0 0 0 0  0 0 0 0.131142437 0" type="matrix" in="shadowBlurOuter1"></feColorMatrix>
        </filter>
        <path d="M85.4013478,561.539522 C96.7231851,561.539522 107.445077,550.178702 107.445077,539.545269 C107.445077,528.911835 99.5178501,519.78762 88.1960128,519.78762 C76.8741754,519.78762 66.9482644,531.119337 66.9482644,541.75277 C66.9482644,552.386204 74.0795104,561.539522 85.4013478,561.539522 Z" id="path-17"></path>
        <filter x="-6.2%" y="-6.0%" width="112.3%" height="112.0%" filterUnits="objectBoundingBox" id="filter-18">
            <feGaussianBlur stdDeviation="1.5" in="SourceAlpha" result="shadowBlurInner1"></feGaussianBlur>
            <feOffset dx="0" dy="2" in="shadowBlurInner1" result="shadowOffsetInner1"></feOffset>
            <feComposite in="shadowOffsetInner1" in2="SourceAlpha" operator="arithmetic" k2="-1" k3="1" result="shadowInnerInner1"></feComposite>
            <feColorMatrix values="0 0 0 0 0   0 0 0 0 0   0 0 0 0 0  0 0 0 0.0597259964 0" type="matrix" in="shadowInnerInner1"></feColorMatrix>
        </filter>
        <circle id="path-19" cx="4.5" cy="37.5" r="1.5"></circle>
        <filter x="-166.7%" y="-166.7%" width="433.3%" height="433.3%" filterUnits="objectBoundingBox" id="filter-20">
            <feGaussianBlur stdDeviation="3" in="SourceAlpha" result="shadowBlurInner1"></feGaussianBlur>
            <feOffset dx="0" dy="4" in="shadowBlurInner1" result="shadowOffsetInner1"></feOffset>
            <feComposite in="shadowOffsetInner1" in2="SourceAlpha" operator="arithmetic" k2="-1" k3="1" result="shadowInnerInner1"></feComposite>
            <feColorMatrix values="0 0 0 0 0   0 0 0 0 0   0 0 0 0 0  0 0 0 0.21337183 0" type="matrix" in="shadowInnerInner1"></feColorMatrix>
        </filter>
        <path d="M0.971070368,35.7968421 L27.0667522,2.43288931 C27.0667522,2.43288931 29.3672587,-0.451387393 32.384558,1.69228023 C35.4018573,3.83594786 33.0899608,6.38887158 33.0899608,6.38887158 L7.56236358,39.9073874 C7.56236358,39.9073874 5.38358972,43.0113144 2.20680211,40.7884742 C-0.969985497,38.565634 0.971070368,35.7968421 0.971070368,35.7968421 Z" id="path-21"></path>
        <filter x="-6.4%" y="-5.3%" width="112.9%" height="110.6%" filterUnits="objectBoundingBox" id="filter-22">
            <feGaussianBlur stdDeviation="1.5" in="SourceAlpha" result="shadowBlurInner1"></feGaussianBlur>
            <feOffset dx="0" dy="1" in="shadowBlurInner1" result="shadowOffsetInner1"></feOffset>
            <feComposite in="shadowOffsetInner1" in2="SourceAlpha" operator="arithmetic" k2="-1" k3="1" result="shadowInnerInner1"></feComposite>
            <feColorMatrix values="0 0 0 0 0   0 0 0 0 0   0 0 0 0 0  0 0 0 0.0673969656 0" type="matrix" in="shadowInnerInner1"></feColorMatrix>
        </filter>
    </defs>
    <g id="Page-1" stroke="none" stroke-width="1" fill="none" fill-rule="evenodd">
        <g id="iphone">
            <path d="M406.438152,14.7883838 C430.441645,32.7255863 543.661685,115.722774 543.661685,115.722774 C543.661685,115.722774 556.384306,124.98725 556.384306,141.23044 C556.384306,157.47363 540.486588,176.219786 540.486588,176.219786 L181.213213,643.019746 C181.213213,643.019746 174.306329,651.175119 158.535171,652.758819 C142.764012,654.34252 129.470164,636.802953 129.470164,636.802953 L15.3129024,519.426982 C15.3129024,519.426982 3.6275538,506.341786 1.61372314,500.714177 C-0.400107516,495.086568 24.9228367,523.230422 24.9228367,523.230422 L137.253483,637.020763 C137.253483,637.020763 153.809567,652.105704 176.550749,622.793035 C199.29193,593.480366 535.743073,151.751861 535.743073,151.751861 C535.743073,151.751861 545.952166,132.043744 534.95437,118.620279 C524.028127,111.626625 376.201617,3.09913303 376.201617,3.09913303 L369.084181,1.84733694 C369.084181,1.84733694 372.665137,-0.342513386 381.292853,1.84733694 C389.920568,4.03718726 396.501989,7.3633411 406.438152,14.7883838 Z" id="Path-6" fill="url(#linearGradient-1)"></path>
            <g id="Path-8">
                <use fill="url(#linearGradient-2)" xlink:href="#path-4"></use>
                <use fill-opacity="0.1" fill="url(#linearGradient-3)" xlink:href="#path-4"></use>
            </g>
            <path d="M366.865229,2.14509215 C366.865229,2.14509215 375.992086,-2.15958833 387.080075,3.25545743 C398.168064,8.6705032 406.396556,14.8753881 406.396556,14.8753881 L424.740573,28.279125 L436.473306,36.8536801 L458.553039,53.2105949 L498.566289,82.6052998 L495.109414,87.1360901 L406.396556,23.4131814 C406.396556,23.4131814 379.49589,2.40896482 373.607934,2.40896482 C367.719978,2.40896482 366.865229,2.14509215 366.865229,2.14509215 Z" id="Path-7" fill="url(#linearGradient-5)"></path>
            <path d="M380.420053,4.29369003 C385.06089,6.81303077 524.677906,108.188058 535.101342,118.640555 C545.524778,129.093052 550.257135,134.285907 528.478029,163.192719 C506.698924,192.099532 173.998411,625.030717 173.998411,625.030717 C173.998411,625.030717 157.380788,647.987504 137.72767,637.948688 C120.744875,620.533392 1.80541941,499.309875 1.80541941,499.309875 C1.80541941,499.309875 -5.79825361,480.27891 12.6266174,456.390851 C31.0514883,432.502792 346.245528,17.916164 346.245528,17.916164 C346.245528,17.916164 353.863383,7.63088815 363.369926,4.29369003 C372.876468,0.956491921 375.779216,1.7743493 380.420053,4.29369003 Z" id="Front" fill="url(#linearGradient-6)"></path>
            <polygon id="Screen" stroke="#D3D3D3" fill="#D8D8D8" points="332.604106 50.7864846 38.584371 437.252062 188.492128 589.13805 502.464747 179.266036"></polygon>
            <g id="Speaker" transform="translate(422.000000, 73.000000)">
                <g id="Path-4">
                    <use fill="url(#linearGradient-7)" xlink:href="#path-9"></use>
                    <use fill="url(#linearGradient-8)" xlink:href="#path-9"></use>
                </g>
                <path d="M3.00390625,6.82214355 C3.00390625,6.82214355 3.21245324,4.57266618 3.97444731,3.65222986 C4.73644138,2.73179355 6.80956174,2.22517402 6.80956174,2.22517402 C6.80956174,2.22517402 4.20147877,-0.631856263 1.78317149,0.970042423 C0.636525917,1.72958611 0.361172345,3.68817741 0.916381836,4.84887695 C1.47159133,6.00957649 3.00390625,6.82214355 3.00390625,6.82214355 Z" id="Path-3" fill="url(#linearGradient-10)"></path>
                <g id="Path-2" opacity="0.733383862">
                    <use fill="black" fill-opacity="1" filter="url(#filter-12)" xlink:href="#path-11"></use>
                    <use stroke="#FFFFFF" stroke-width="1" xlink:href="#path-11"></use>
                </g>
            </g>
            <g id="Volume">
                <use fill="black" fill-opacity="1" filter="url(#filter-16)" xlink:href="#path-15"></use>
                <use stroke="url(#linearGradient-14)" stroke-width="1" fill="url(#linearGradient-13)" fill-rule="evenodd" xlink:href="#path-15"></use>
            </g>
            <g id="Button" fill-opacity="1" fill="black">
                <use filter="url(#filter-18)" xlink:href="#path-17"></use>
            </g>
            <g id="Sim" transform="translate(366.000000, 353.000000)">
                <g id="Oval-2">
                    <use fill-opacity="0.219999999" fill="#000000" fill-rule="evenodd" xlink:href="#path-19"></use>
                    <use fill="black" fill-opacity="1" filter="url(#filter-20)" xlink:href="#path-19"></use>
                </g>
                <g id="Path-10">
                    <use fill="black" fill-opacity="1" filter="url(#filter-22)" xlink:href="#path-21"></use>
                    <use stroke-opacity="0.263954937" stroke="#979797" stroke-width="0.3" xlink:href="#path-21"></use>
                </g>
            </g>
        </g>
    </g>
</svg>