<?xml version="1.0" encoding="UTF-8"?>
<svg width="24px" height="24px" viewBox="0 0 24 24" version="1.1" xmlns="http://www.w3.org/2000/svg" xmlns:xlink="http://www.w3.org/1999/xlink">
    <!-- Generator: Sketch 43.2 (39069) - http://www.bohemiancoding.com/sketch -->
    <title>x-mark</title>
    <desc>Created with Sketch.</desc>
    <defs></defs>
    <g id="Page-1" stroke="none" stroke-width="1" fill="none" fill-rule="evenodd">
        <g id="x-mark">
            <path d="M12,0 C5.373,0 0,5.373 0,12 C0,18.627 5.373,24 12,24 C18.627,24 24,18.627 24,12 C24,5.373 18.627,0 12,0 Z M16.151,17.943 L12.008,13.841 L7.891,18 L6.058,16.167 L10.162,12.01 L6,7.891 L7.833,6.058 L11.988,10.16 L16.094,6 L17.943,7.849 L13.843,11.99 L18,16.094 L16.151,17.943 Z" id="Shape" fill="#B60117" fill-rule="nonzero"></path>
            <polygon id="Path-Copy" fill="#FFFFFF" points="16.151 17.943 12.008 13.841 7.891 18 6.058 16.167 10.162 12.01 6 7.891 7.833 6.058 11.988 10.16 16.094 6 17.943 7.849 13.843 11.99 18 16.094"></polygon>
        </g>
    </g>
</svg>